# xmcd
#
# Track frame offsets:
#	150
#	12670
#	29105
#	42067
#	58374
#	73936
#	87877
#	105175
#	121959
#	133564
#	146969
#
# Disc length: 2144 seconds
#
# Revision: 1
# Processed by: cddbd v1.5.2PL0 Copyright (c) Steve Scherf et al.
# Submitted via: audiograbber 1.83.01
#
DISCID=a3085e0b
DTITLE=Mike McClure Band - Did 7
DYEAR=2008
DGENRE=Country Rock
TTITLE0=Stupid Hole
TTITLE1=Streamlining
TTITLE2=Little Sister Sunshine (Mayme's Song)
TTITLE3=Another Place To Run
TTITLE4=Believe
TTITLE5=Dance Like An Idiot
TTITLE6=Magnolia
TTITLE7=Take Me Somewhere Tonight
TTITLE8=Supposed To Be
TTITLE9=Eagle And The Crow
TTITLE10=Hallelujah
EXTD=
EXTT0=
EXTT1=
EXTT2=
EXTT3=
EXTT4=
EXTT5=
EXTT6=
EXTT7=
EXTT8=
EXTT9=
EXTT10=
PLAYORDER=
